<?xml version="1.0" encoding="UTF-8"?>
<svg width="512" height="512" viewBox="0 0 512 512" xmlns="http://www.w3.org/2000/svg">
    <path fill="#16a34a" fill-rule="evenodd" stroke="none" d="M 184.895996 33 L 12.195821 132.707458 L 12.195821 259.94812 L 184.888458 160.240692 C 184.937454 160.199463 207.785782 173.382202 235.251999 189.24585 L 235.251999 189.253632 C 266.908447 207.539154 299.340179 226.315277 327.674988 242.677399 L 369.748535 218.39032 L 458.310089 167.264801 L 458.310089 197.351318 L 327.674988 272.771698 L 277.318024 243.691986 L 235.251999 219.404907 L 184.888458 190.325195 L 12.195821 290.032776 L 12.188284 417.27533 L 184.888458 317.567871 L 277.318024 370.932678 L 277.318024 370.901337 L 327.674988 400.004608 L 458.300659 324.59198 L 458.300659 354.676514 L 327.666504 430.097015 L 235.251999 376.73999 L 196.452042 354.340912 L 154.386032 378.627991 L 235.251999 425.314148 L 327.674988 478.671143 L 500.374207 378.963562 L 500.374207 251.7229 L 327.674988 351.430481 C 327.635406 351.47168 304.778595 338.28894 277.318024 322.433167 L 277.318024 322.425293 C 245.663467 304.131958 213.231735 285.355865 184.888458 268.993744 L 142.824326 293.280823 L 54.261845 344.406372 L 54.261845 314.321716 L 184.888458 238.899323 L 235.251999 267.979065 L 277.318024 292.266113 L 327.674988 321.345825 L 500.374207 221.636383 L 500.374207 94.395691 L 327.674988 194.103271 L 235.251999 140.738373 L 235.251999 140.769806 L 184.895996 111.666534 L 54.269379 187.079163 L 54.261845 156.994507 L 184.895996 81.574127 L 277.318024 134.931152 L 327.674988 164.010864 L 369.748535 139.723785 L 277.318024 86.356995 L 184.895996 33 Z"/>
</svg>
